<?xml version="1.0" encoding="utf-8"?>
<svg width="48px" height="48px" viewBox="0 0 48 48" xmlns="http://www.w3.org/2000/svg">
  <path fill="#e6a329" d="M 41 5 L 7 5 L 10.187 39.132 L 23.998 43 L 37.809 39.132 L 41 5 Z" data-name="Path 275"/>
  <path fill="#f1bf22" d="M 23.998 7.781 L 23.998 40.108 L 35.188 36.977 L 37.91 7.781 L 23.998 7.781 Z" data-name="Path 276"/>
  <path fill="#fff" d="M 32.901 11.968 L 15.695 11.968 L 14.497 24.746 L 14.522 24.667 L 29.138 24.667 L 28.662 30.073 L 23.999 31.398 L 19.266 30.052 L 18.983 26.78 L 14.687 26.78 L 15.3 33.318 L 23.999 35.757 L 32.701 33.318 L 33.9 20.484 L 18.387 20.484 L 18.586 16.208 L 29.349 16.208 L 29.51 18.658 L 33.842 18.658 L 32.901 11.968 Z" data-name="Path 277"/>
  <path fill="#ebebeb" d="M 24.002 11.968 L 15.695 11.968 L 14.497 24.746 L 14.522 24.667 L 24.002 24.667 L 24.002 20.498 L 18.992 20.498 L 19.191 16.222 L 24.002 16.222 L 24.002 11.968 Z M 18.992 26.782 L 14.687 26.782 L 15.299 33.317 L 23.998 35.753 L 23.998 31.404 L 19.266 30.054 L 18.992 26.782 Z" data-name="Path 278"/>
</svg>